<mxfile host="app.diagrams.net" agent="Mozilla/5.0 (Windows NT 10.0; Win64; x64) AppleWebKit/537.36 (KHTML, like Gecko) Chrome/140.0.0.0 Safari/537.36" version="28.2.4">
  <diagram name="Página-1" id="y5ZlivGnWpCl0Rq5OCOY">
    <mxGraphModel grid="1" page="1" gridSize="10" guides="1" tooltips="1" connect="1" arrows="1" fold="1" pageScale="1" pageWidth="827" pageHeight="1169" math="0" shadow="0">
      <root>
        <mxCell id="0" />
        <mxCell id="1" parent="0" />
        <mxCell id="QYURIXJP-5CrwSHtvB-L-1" value="&lt;h1 style=&quot;margin-top: 0px;&quot;&gt;Resolución por parte del usuario para pagar la multa&lt;/h1&gt;" style="text;html=1;whiteSpace=wrap;overflow=hidden;rounded=0;" vertex="1" parent="1">
          <mxGeometry x="10" width="620" height="40" as="geometry" />
        </mxCell>
        <mxCell id="QYURIXJP-5CrwSHtvB-L-2" value="Pago de multa en instituciones bancarias autorizadas" style="rounded=0;whiteSpace=wrap;html=1;" vertex="1" parent="1">
          <mxGeometry x="40" y="80" width="140" height="70" as="geometry" />
        </mxCell>
        <mxCell id="QYURIXJP-5CrwSHtvB-L-3" value="Pago de derecho por retiro del dispositivo ($327.00)" style="rounded=0;whiteSpace=wrap;html=1;" vertex="1" parent="1">
          <mxGeometry x="40" y="509" width="140" height="75.5" as="geometry" />
        </mxCell>
        <mxCell id="QYURIXJP-5CrwSHtvB-L-5" value="&amp;nbsp;Contacto telefónico al número indicado en el comprobante" style="rounded=0;whiteSpace=wrap;html=1;" vertex="1" parent="1">
          <mxGeometry x="295" y="370" width="140" height="70" as="geometry" />
        </mxCell>
        <mxCell id="QYURIXJP-5CrwSHtvB-L-6" value="Verificación de no adeudos por parte del personal" style="rounded=0;whiteSpace=wrap;html=1;" vertex="1" parent="1">
          <mxGeometry x="300" y="511.75" width="130" height="70" as="geometry" />
        </mxCell>
        <mxCell id="QYURIXJP-5CrwSHtvB-L-7" value="Retiro del dispositivo inmovilizador&amp;nbsp;" style="rounded=0;whiteSpace=wrap;html=1;" vertex="1" parent="1">
          <mxGeometry x="300" y="230" width="130" height="70" as="geometry" />
        </mxCell>
        <mxCell id="QYURIXJP-5CrwSHtvB-L-8" value="Multas por Infracciones:&amp;nbsp;&lt;div&gt;&lt;br&gt;&lt;/div&gt;&lt;div&gt;Rango: 5 a 10 Unidades de Medida y Actualización (UMA)&lt;br/&gt;- Equivalencia 2025: $565.70 a $1,131.40 pesos&lt;br/&gt;- Promedio aproximado: $1,700 pesos&lt;/div&gt;" style="rounded=0;whiteSpace=wrap;html=1;" vertex="1" parent="1">
          <mxGeometry x="40" y="220" width="140" height="210" as="geometry" />
        </mxCell>
        <mxCell id="QYURIXJP-5CrwSHtvB-L-9" value="" style="endArrow=classic;html=1;rounded=0;exitX=0.5;exitY=1;exitDx=0;exitDy=0;entryX=0.5;entryY=0;entryDx=0;entryDy=0;" edge="1" parent="1" source="QYURIXJP-5CrwSHtvB-L-2" target="QYURIXJP-5CrwSHtvB-L-8">
          <mxGeometry width="50" height="50" relative="1" as="geometry">
            <mxPoint x="390" y="370" as="sourcePoint" />
            <mxPoint x="110" y="210" as="targetPoint" />
          </mxGeometry>
        </mxCell>
        <mxCell id="QYURIXJP-5CrwSHtvB-L-10" value="" style="endArrow=classic;html=1;rounded=0;exitX=0.5;exitY=1;exitDx=0;exitDy=0;entryX=0.5;entryY=0;entryDx=0;entryDy=0;" edge="1" parent="1" source="QYURIXJP-5CrwSHtvB-L-8" target="QYURIXJP-5CrwSHtvB-L-3">
          <mxGeometry width="50" height="50" relative="1" as="geometry">
            <mxPoint x="390" y="470" as="sourcePoint" />
            <mxPoint x="440" y="420" as="targetPoint" />
          </mxGeometry>
        </mxCell>
        <mxCell id="QYURIXJP-5CrwSHtvB-L-12" value="" style="endArrow=classic;html=1;rounded=0;exitX=1;exitY=0.5;exitDx=0;exitDy=0;entryX=0;entryY=0.5;entryDx=0;entryDy=0;" edge="1" parent="1" source="QYURIXJP-5CrwSHtvB-L-3" target="QYURIXJP-5CrwSHtvB-L-6">
          <mxGeometry width="50" height="50" relative="1" as="geometry">
            <mxPoint x="390" y="470" as="sourcePoint" />
            <mxPoint x="440" y="420" as="targetPoint" />
          </mxGeometry>
        </mxCell>
        <mxCell id="QYURIXJP-5CrwSHtvB-L-13" value="" style="endArrow=classic;html=1;rounded=0;exitX=0.5;exitY=0;exitDx=0;exitDy=0;entryX=0.5;entryY=1;entryDx=0;entryDy=0;" edge="1" parent="1" source="QYURIXJP-5CrwSHtvB-L-6" target="QYURIXJP-5CrwSHtvB-L-5">
          <mxGeometry width="50" height="50" relative="1" as="geometry">
            <mxPoint x="390" y="470" as="sourcePoint" />
            <mxPoint x="440" y="420" as="targetPoint" />
          </mxGeometry>
        </mxCell>
        <mxCell id="QYURIXJP-5CrwSHtvB-L-14" value="" style="endArrow=classic;html=1;rounded=0;exitX=0.5;exitY=0;exitDx=0;exitDy=0;entryX=0.5;entryY=1;entryDx=0;entryDy=0;" edge="1" parent="1" source="QYURIXJP-5CrwSHtvB-L-5" target="QYURIXJP-5CrwSHtvB-L-7">
          <mxGeometry width="50" height="50" relative="1" as="geometry">
            <mxPoint x="390" y="370" as="sourcePoint" />
            <mxPoint x="440" y="320" as="targetPoint" />
          </mxGeometry>
        </mxCell>
        <mxCell id="GzZEbIOr8Vd1ufbFjfpw-1" value="&lt;font style=&quot;font-size: 15px;&quot;&gt;&lt;b&gt;Instrumentos Jurídicos&lt;/b&gt;&lt;/font&gt;&lt;div style=&quot;text-align: center;&quot;&gt;&lt;span style=&quot;background-color: transparent; color: light-dark(rgb(0, 0, 0), rgb(255, 255, 255));&quot;&gt;&lt;font style=&quot;font-size: 14px;&quot;&gt;&lt;b&gt;Principales&amp;nbsp;&lt;/b&gt;&lt;/font&gt;&lt;/span&gt;&lt;/div&gt;&lt;div style=&quot;text-align: center;&quot;&gt;&lt;span style=&quot;background-color: transparent; color: light-dark(rgb(0, 0, 0), rgb(255, 255, 255));&quot;&gt;&lt;br&gt;&lt;/span&gt;&lt;/div&gt;&lt;div&gt;&lt;span style=&quot;background-color: transparent; color: light-dark(rgb(0, 0, 0), rgb(255, 255, 255));&quot;&gt;Reglamento para el Control de Estacionamiento en Vía Pública de la Ciudad de México:&lt;br/&gt;- Publicación inicial: 31 de agosto de 2022&lt;br/&gt;- Última reforma: 2024&lt;br/&gt;- Define competencias, procedimientos y sanciones&lt;br/&gt;Reglamento de Tránsito de la Ciudad de México:&lt;br/&gt;- Última reforma: 26 de noviembre de 2024&lt;br/&gt;- Establece infracciones y sistema de puntos de penalización&lt;br/&gt;Ley de Movilidad de la Ciudad de México:&lt;br/&gt;- Marco superior de política de movilidad&lt;br/&gt;- Última reforma: diciembre 2021&lt;br/&gt;- Énfasis en movilidad sustentable y prioridad peatonal&lt;/span&gt;&lt;/div&gt;" style="text;html=1;whiteSpace=wrap;overflow=hidden;rounded=0;" vertex="1" parent="1">
          <mxGeometry x="580" y="120" width="180" height="380" as="geometry" />
        </mxCell>
      </root>
    </mxGraphModel>
  </diagram>
</mxfile>
